<?xml version="1.0" standalone="no"?>
<!DOCTYPE svg PUBLIC "-//W3C//DTD SVG 20010904//EN"
 "http://www.w3.org/TR/2001/REC-SVG-20010904/DTD/svg10.dtd">
<svg version="1.0" xmlns="http://www.w3.org/2000/svg"
 width="256.000000pt" height="256.000000pt" viewBox="0 0 256.000000 256.000000"
 preserveAspectRatio="xMidYMid meet">
<metadata>
Created by potrace 1.11, written by Peter Selinger 2001-2013
</metadata>
<g transform="translate(0.000000,256.000000) scale(0.100000,-0.100000)"
fill="#000000" stroke="none">
<path d="M0 1280 l0 -1280 1280 0 1280 0 0 1280 0 1280 -1280 0 -1280 0 0
-1280z m2010 140 c43 -43 4 -123 -60 -123 -27 0 -41 8 -67 38 l-33 38 -21 -48
c-42 -96 -34 -180 24 -250 43 -53 97 -75 184 -75 39 0 75 -5 78 -10 9 -15 -28
-71 -69 -103 -181 -142 -424 -124 -580 42 -80 87 -129 235 -106 321 10 37 16
42 93 79 92 44 211 70 339 76 46 2 99 11 118 19 48 21 76 20 100 -4z m-1237
-10 c-2 -9 9 -20 26 -27 41 -15 64 -62 50 -102 -28 -79 -133 -64 -154 21 -9
35 -22 27 -46 -26 -24 -52 -24 -130 0 -181 39 -85 114 -125 232 -125 55 0 69
-3 69 -15 0 -27 -92 -107 -160 -139 -60 -29 -73 -31 -175 -31 -106 0 -113 2
-179 35 -129 64 -214 180 -237 320 -17 105 -15 108 119 173 64 31 142 61 172
67 30 6 82 19 115 30 73 24 171 23 168 0z m824 -1036 c8 -22 -68 -96 -136
-132 -66 -35 -125 -49 -244 -57 -103 -8 -137 5 -137 54 0 47 22 56 120 53 111
-4 208 17 296 62 78 40 92 43 101 20z"/>
</g>
</svg>
